<svg width="200" height="24" viewBox="0 0 200 24" fill="none" xmlns="http://www.w3.org/2000/svg">
<path d="M33.1174 23.8808L0 23.999L29.7329 6.32983L33.1174 23.8808Z" fill="url(#paint0_linear_568_453)"/>
<path d="M53.7521 0L33.1177 23.8809L29.7333 6.32986L53.7521 0Z" fill="url(#paint1_linear_568_453)"/>
<path d="M29.7356 6.33084L0.00268555 24L22.68 0.000976562L29.7356 6.33084Z" fill="url(#paint2_linear_568_453)"/>
<path d="M53.7523 0L29.7335 6.32987L22.6779 0H53.7523Z" fill="url(#paint3_linear_568_453)"/>
<path d="M65.1 22C62.2015 22 59.9189 21.221 58.2522 19.663C56.5855 18.1051 55.7522 15.9764 55.7522 13.2772C55.7522 10.0888 56.7576 7.41667 58.7685 5.26087C60.7975 3.08696 63.3518 2 66.4315 2C67.9352 2 69.2757 2.22645 70.4533 2.67935C71.6489 3.13225 72.6363 3.88406 73.4152 4.93478C74.2123 5.96739 74.6471 7.24457 74.7196 8.7663H70.3446C70.1272 6.57428 68.7776 5.47826 66.2957 5.47826C64.466 5.47826 63.0076 6.23007 61.9207 7.7337C60.8337 9.23732 60.2902 11.0761 60.2902 13.25C60.2902 14.9348 60.7069 16.2482 61.5402 17.1902C62.3736 18.1322 63.5964 18.6033 65.2087 18.6033C67.9623 18.6033 69.5928 17.2355 70.1 14.5H65.725L66.2413 11.2935H74.9642C74.475 18.4312 71.187 22 65.1 22Z" fill="white"/>
<path d="M76.3025 21.7011L79.3731 2.27174H83.8025L80.7318 21.7011H76.3025Z" fill="white"/>
<path d="M88.5897 21.7011L91.0897 5.69565H85.8452L86.4158 2.27174H101.334L100.764 5.69565H95.5191L93.0191 21.7011H88.5897Z" fill="white"/>
<path d="M111.151 21.7011L110.499 17.3804H103.461L101.477 21.7011H97.2378L106.694 2.27174H112.428L115.662 21.7011H111.151ZM108.814 5.8587L104.928 14.2554H110.037L108.814 5.8587Z" fill="white"/>
<path d="M123.617 21.7011L126.687 2.27174H133.698C135.727 2.27174 137.24 2.67935 138.236 3.49457C139.232 4.30978 139.722 5.46014 139.703 6.94565C139.703 9.40942 138.463 10.9764 135.981 11.6467C138.191 12.154 139.305 13.5308 139.323 15.7772C139.323 17.5707 138.662 19.0109 137.339 20.0978C136.017 21.1667 134.26 21.7011 132.068 21.7011H123.617ZM128.372 18.6576H131.551C132.674 18.6576 133.535 18.3768 134.133 17.8152C134.731 17.2536 135.03 16.5018 135.03 15.5598C135.03 14.7264 134.776 14.1105 134.269 13.712C133.78 13.2953 132.982 13.087 131.877 13.087H129.269L128.372 18.6576ZM129.703 10.2609H132.367C134.54 10.2609 135.627 9.31884 135.627 7.43478C135.627 6.69203 135.41 6.14855 134.975 5.80435C134.559 5.46014 133.897 5.28804 132.992 5.28804H130.492L129.703 10.2609Z" fill="white"/>
<path d="M153.326 21.7011L152.673 17.3804H145.635L143.652 21.7011H139.413L148.869 2.27174H154.603L157.837 21.7011H153.326ZM150.989 5.8587L147.103 14.2554H152.212L150.989 5.8587Z" fill="white"/>
<path d="M160.039 21.7011L163.11 2.27174H168.246L173.517 15.0707L175.555 2.27174H179.523L176.452 21.7011H172.023L166.18 7.86957L164.006 21.7011H160.039Z" fill="white"/>
<path d="M180.36 21.7011L183.431 2.27174H187.833L186.501 10.6141L194.681 2.27174H199.491L190.197 11.5924L196.583 21.7011H191.773L186.175 12.7065L184.762 21.7011H180.36Z" fill="white"/>
<defs>
<linearGradient id="paint0_linear_568_453" x1="29.6745" y1="21.2382" x2="-2.20204" y2="15.6978" gradientUnits="userSpaceOnUse">
<stop stop-color="#00AAFF"/>
<stop offset="1" stop-color="#00AAFF"/>
<stop offset="1" stop-color="#00F0FF"/>
</linearGradient>
<linearGradient id="paint1_linear_568_453" x1="51.2551" y1="20.1495" x2="27.6432" y2="17.9473" gradientUnits="userSpaceOnUse">
<stop stop-color="#00AAFF"/>
<stop offset="1" stop-color="#00AAFF"/>
<stop offset="1" stop-color="#00F0FF"/>
</linearGradient>
<linearGradient id="paint2_linear_568_453" x1="26.6446" y1="20.2502" x2="-2.45477" y2="16.907" gradientUnits="userSpaceOnUse">
<stop stop-color="#00AAFF"/>
<stop offset="1" stop-color="#00AAFF"/>
<stop offset="1" stop-color="#00F0FF"/>
</linearGradient>
<linearGradient id="paint3_linear_568_453" x1="50.5218" y1="5.34083" x2="24.9977" y2="-6.2786" gradientUnits="userSpaceOnUse">
<stop stop-color="#00AAFF"/>
<stop offset="1" stop-color="#00AAFF"/>
<stop offset="1" stop-color="#00F0FF"/>
</linearGradient>
</defs>
</svg>
